<svg id="Layer_1" data-name="Layer 1" xmlns="http://www.w3.org/2000/svg" viewBox="0 0 704.25 100"><defs><style>.cls-1{fill:#3c393a;}</style></defs><path class="cls-1" d="M201.8,98H159V2h41.2Q217,2,225.49,9.19T234,28.11a22,22,0,0,1-4,13.1,23.45,23.45,0,0,1-10.83,8.25,24.06,24.06,0,0,1,12,8.17,21.31,21.31,0,0,1,4.45,13.45q0,12.7-8.75,19.8T201.8,98m-1.43-81.08H176.11v25h24.26q16.08,0,16.08-12.43a11.34,11.34,0,0,0-4-9.26q-4-3.32-12.06-3.31m1.29,40H176.11V83.11h25.41q16.65,0,16.65-13.11,0-6.21-4.31-9.67t-12.2-3.44"/><path class="cls-1" d="M263.82,85.74Q249,71.49,249,50t14.79-35.74Q278.61,0,301.72,0t37.9,14.26Q354.4,28.51,354.4,50T339.62,85.74Q324.83,100,301.72,100t-37.9-14.26M277,25.13Q267.42,34.6,267.41,50T277,74.86q9.62,9.47,24.69,9.46t24.69-9.46Q336,65.41,336,50t-9.62-24.87q-9.62-9.45-24.69-9.46T277,25.13"/><polygon class="cls-1" points="431.83 25.03 408.97 97.97 390.72 97.97 359 2.03 378.67 2.03 400.06 74.86 400.35 74.87 423.03 2.03 442.02 2.03 464.71 74.89 465 74.89 486.63 2.03 505.72 2.03 473.99 97.97 455.33 97.97 432.5 25.13 431.83 25.03"/><polygon class="cls-1" points="608.5 97.97 586.82 97.97 554.12 54.05 536.43 71.62 536.43 97.97 519.07 97.97 519.07 2.03 536.43 2.03 536.43 50.91 583.66 2.03 606.49 2.03 566.32 41.93 608.5 97.97"/><path class="cls-1" d="M625,98H606.63L646.11,2h18.52L704.25,98h-19L678,79.46H632.36ZM655.28,22.3h-.22L638.27,64.59h33.79Z"/><path class="cls-1" d="M111.58,76.78H19.78V21.63h92.83q8.79,0,8.79,11.53V42.3q0,6.29-3.31,8.68,3.19,4.79,3.19,8.79V67q0,9.71-8,9.71h-.23ZM106.9,42.64a5,5,0,0,0,1.48-1.31,6.4,6.4,0,0,0,.92-3.6q-1.83-3.07-2.86-3.54H31.09v8.45Zm-.69,21a11.45,11.45,0,0,0,2.52-5.71q-2-3.42-3.43-3.42H31.09v9.13h75.12Z"/><path class="cls-1" d="M8.79,100Q0,100,0,86.64V11.53Q0,0,8.79,0h112.1V12.67H13.7a12.07,12.07,0,0,0-1.83,5V82.53L13,86H120.89v14Z"/></svg>