<svg id="Layer_1" data-name="Layer 1" xmlns="http://www.w3.org/2000/svg" viewBox="0 0 471.93 100"><defs><style>.cls-1{fill:#3c393a;}</style></defs><path class="cls-1" d="M159,86.86a12.62,12.62,0,0,1,3.74-9.42,13.21,13.21,0,0,1,9.61-3.64,13.74,13.74,0,0,1,8.5,2.62,11,11,0,0,1,4.33,7.08h-4.85a7,7,0,0,0-2.8-4.11,8.84,8.84,0,0,0-5.18-1.49,8.16,8.16,0,0,0-6.26,2.43,9.15,9.15,0,0,0-2.28,6.53,9.2,9.2,0,0,0,2.28,6.55,8.13,8.13,0,0,0,6.26,2.45,8.84,8.84,0,0,0,5.18-1.49,7,7,0,0,0,2.8-4.11h4.85a11,11,0,0,1-4.33,7.08,13.74,13.74,0,0,1-8.5,2.63,13.21,13.21,0,0,1-9.61-3.65A12.65,12.65,0,0,1,159,86.86"/><path class="cls-1" d="M193,96.26a13.24,13.24,0,0,1,0-18.73,15.05,15.05,0,0,1,19.86,0,13.24,13.24,0,0,1,0,18.73,15.05,15.05,0,0,1-19.86,0m3.46-15.88a9,9,0,1,0,12.94,0,9.68,9.68,0,0,0-12.94,0"/><polygon class="cls-1" points="227.19 81.43 227.19 99.47 222.71 99.47 222.71 74.33 227.27 74.33 240.32 92.52 240.32 74.33 244.79 74.33 244.79 99.47 240.13 99.47 227.19 81.43"/><path class="cls-1" d="M260.86,96.11a8.23,8.23,0,0,0,4.25-.91,2.85,2.85,0,0,0,1.5-2.59,2.62,2.62,0,0,0-.83-2,4.82,4.82,0,0,0-2.17-1.12l-2.88-.73-3.15-.8a12.73,12.73,0,0,1-2.93-1.11,5.41,5.41,0,0,1-2.14-2.13,6.68,6.68,0,0,1-.83-3.47A6.61,6.61,0,0,1,254.29,76a10.57,10.57,0,0,1,6.94-2.16,10.1,10.1,0,0,1,7.09,2.32,8,8,0,0,1,2.62,6h-4.48a4.3,4.3,0,0,0-1.39-3.21,5.42,5.42,0,0,0-3.84-1.25,6.64,6.64,0,0,0-3.7.89,2.91,2.91,0,0,0-1.34,2.56,2.32,2.32,0,0,0,.83,1.81A5.3,5.3,0,0,0,259.2,84l2.92.74,3.19.8a11.89,11.89,0,0,1,2.95,1.18,5.86,5.86,0,0,1,2.15,2.21,7,7,0,0,1,.83,3.51,6.42,6.42,0,0,1-2.9,5.49,13.06,13.06,0,0,1-7.71,2.06c-3.29,0-5.75-.82-7.41-2.45a8.4,8.4,0,0,1-2.6-5.91h4.52a4.46,4.46,0,0,0,1.62,3.29,6.28,6.28,0,0,0,4.1,1.21"/><polygon class="cls-1" points="294.49 74.33 294.49 78.4 286.74 78.4 286.74 99.47 282.19 99.47 282.19 78.4 274.44 78.4 274.44 74.33 294.49 74.33"/><path class="cls-1" d="M320.52,99.47h-5.34l-5.42-9.92h-6.13v9.92h-4.55V74.33h11.73c2.86,0,5,.69,6.55,2.09a7.18,7.18,0,0,1,2.26,5.52,7.5,7.5,0,0,1-1.32,4.45A7.14,7.14,0,0,1,314.39,89ZM314,84.6a3.87,3.87,0,0,0,0-5.32,4.39,4.39,0,0,0-3.12-1h-7.22v7.3h7.22a4.39,4.39,0,0,0,3.12-1"/><path class="cls-1" d="M344.37,97.2a12.76,12.76,0,0,1-15.95,0c-2.09-1.86-3.12-4.55-3.12-8.07V74.33h4.55v15a7,7,0,0,0,1.67,4.92,7.49,7.49,0,0,0,9.74,0,6.94,6.94,0,0,0,1.68-4.92v-15h4.55v14.8q0,5.28-3.12,8.07"/><path class="cls-1" d="M353.24,86.86A12.59,12.59,0,0,1,357,77.44a13.19,13.19,0,0,1,9.61-3.64,13.76,13.76,0,0,1,8.5,2.62,11,11,0,0,1,4.33,7.08h-4.86a6.93,6.93,0,0,0-2.8-4.11,8.81,8.81,0,0,0-5.17-1.49,8.18,8.18,0,0,0-6.27,2.43,9.19,9.19,0,0,0-2.27,6.53,9.24,9.24,0,0,0,2.27,6.55,8.16,8.16,0,0,0,6.27,2.45,8.81,8.81,0,0,0,5.17-1.49,6.93,6.93,0,0,0,2.8-4.11h4.86a11,11,0,0,1-4.33,7.08,13.76,13.76,0,0,1-8.5,2.63A13.2,13.2,0,0,1,357,96.32a12.62,12.62,0,0,1-3.75-9.46"/><polygon class="cls-1" points="401.06 74.33 401.06 78.4 393.31 78.4 393.31 99.47 388.76 99.47 388.76 78.4 381.01 78.4 381.01 74.33 401.06 74.33"/><rect class="cls-1" x="405.65" y="74.33" width="4.55" height="25.14"/><path class="cls-1" d="M420.09,96.26a13.27,13.27,0,0,1,0-18.73,15.07,15.07,0,0,1,19.87,0,13.27,13.27,0,0,1,0,18.73,15.07,15.07,0,0,1-19.87,0m3.46-15.88A9.68,9.68,0,1,0,430,77.9a8.87,8.87,0,0,0-6.47,2.48"/><polygon class="cls-1" points="454.32 81.43 454.32 99.47 449.85 99.47 449.85 74.33 454.41 74.33 467.45 92.52 467.45 74.33 471.93 74.33 471.93 99.47 467.26 99.47 454.32 81.43"/><path class="cls-1" d="M183.58,56.23H159V1.16h23.64q9.65,0,14.5,4.11A13.52,13.52,0,0,1,202,16.13a12.61,12.61,0,0,1-2.26,7.52,13.45,13.45,0,0,1-6.22,4.73,13.84,13.84,0,0,1,6.92,4.7A12.21,12.21,0,0,1,203,40.79q0,7.29-5,11.37t-14.41,4.07m-.83-46.54H168.83V24h13.92Q192,24,192,16.91a6.51,6.51,0,0,0-2.31-5.32c-1.53-1.26-3.84-1.9-6.92-1.9m.74,23H168.83V47.7h14.58q9.56,0,9.56-7.53a6.67,6.67,0,0,0-2.47-5.54q-2.48-2-7-2"/><path class="cls-1" d="M219.17,49.21a27.33,27.33,0,0,1-8.49-20.52,27.31,27.31,0,0,1,8.49-20.51Q227.65,0,240.92,0t21.75,8.18a27.33,27.33,0,0,1,8.48,20.51,27.36,27.36,0,0,1-8.48,20.52q-8.49,8.17-21.75,8.18t-21.75-8.18m7.58-34.79q-5.52,5.43-5.52,14.27T226.75,43q5.52,5.43,14.17,5.43T255.09,43q5.52-5.43,5.52-14.27t-5.52-14.27Q249.57,9,240.92,9t-14.17,5.42"/><polygon class="cls-1" points="315.59 14.36 302.47 56.23 292 56.23 273.79 1.16 285.08 1.16 297.36 42.96 297.52 42.97 310.54 1.16 321.43 1.16 334.45 42.98 334.62 42.98 347.03 1.16 357.99 1.16 339.78 56.23 329.07 56.23 315.97 14.42 315.59 14.36"/><polygon class="cls-1" points="416.98 56.23 404.54 56.23 385.77 31.02 375.62 41.1 375.62 56.23 365.65 56.23 365.65 1.16 375.62 1.16 375.62 29.22 402.72 1.16 415.82 1.16 392.77 24.06 416.98 56.23"/><path class="cls-1" d="M426.45,56.23H415.9L438.56,1.16h10.63l22.74,55.07H461.05L456.84,45.6H430.67ZM443.83,12.8h-.13l-9.64,24.26h19.39Z"/><path class="cls-1" d="M111.58,76.78H19.78V21.63h92.83q8.79,0,8.79,11.53V42.3q0,6.29-3.31,8.68,3.19,4.79,3.19,8.79V67q0,9.71-8,9.71h-.23ZM106.9,42.64a5,5,0,0,0,1.48-1.31,6.4,6.4,0,0,0,.92-3.6q-1.83-3.07-2.86-3.54H31.09v8.45Zm-.69,21a11.45,11.45,0,0,0,2.52-5.71q-2-3.42-3.43-3.42H31.09v9.13h75.12Z"/><path class="cls-1" d="M8.79,100Q0,100,0,86.64V11.53Q0,0,8.79,0h112.1V12.67H13.7a12.07,12.07,0,0,0-1.83,5V82.53L13,86H120.89v14Z"/></svg>